<?xml version="1.0" standalone="no"?>
<!DOCTYPE svg PUBLIC "-//W3C//DTD SVG 20010904//EN"
 "http://www.w3.org/TR/2001/REC-SVG-20010904/DTD/svg10.dtd">
<svg version="1.0" xmlns="http://www.w3.org/2000/svg"
 width="640.000000pt" height="640.000000pt" viewBox="0 0 640.000000 640.000000"
 preserveAspectRatio="xMidYMid meet">

<g transform="translate(0.000000,640.000000) scale(0.100000,-0.100000)"
fill="#000000" stroke="none">
<path d="M768 5201 l-33 -29 0 -2197 0 -2197 33 -29 32 -29 1458 0 1457 0 105
-103 c117 -113 216 -178 357 -234 127 -50 199 -64 368 -70 126 -4 166 -2 250
16 347 72 614 284 769 612 155 327 128 726 -68 1033 l-36 56 0 1561 c0 1129
-3 1566 -11 1582 -6 12 -21 30 -33 39 -20 17 -157 18 -2318 18 l-2298 0 -32
-29z m1682 -566 l0 -395 -755 0 -755 0 0 395 0 395 755 0 755 0 0 -395z m1068
-2 l2 -393 -430 0 -430 0 0 395 0 395 428 -2 427 -3 3 -392z m1740 0 l2 -393
-770 0 -770 0 0 395 0 395 768 -2 767 -3 3 -392z m-2806 -948 l3 -345 28 -27
27 -28 548 -3 c301 -2 562 0 581 3 18 4 44 18 57 32 l24 26 0 343 0 344 770 0
770 0 0 -890 c0 -490 -1 -890 -3 -890 -2 0 -40 24 -85 54 -303 199 -714 231
-1037 82 -413 -191 -664 -597 -642 -1041 6 -131 37 -269 80 -367 l26 -58
-1330 0 -1329 0 0 1555 0 1555 755 0 754 0 3 -345z m1068 75 l0 -270 -430 0
-430 0 0 270 0 270 430 0 430 0 0 -270z m1255 -1507 c156 -35 279 -101 403
-218 146 -137 231 -290 267 -480 66 -342 -87 -704 -378 -896 -411 -270 -949
-162 -1224 246 -132 196 -179 457 -124 690 84 353 386 627 746 674 86 12 217
5 310 -16z"/>
<path d="M1390 2833 c-30 -11 -60 -47 -66 -78 -7 -39 16 -88 49 -107 17 -10
165 -14 662 -16 352 -2 663 0 692 3 56 7 97 37 105 78 8 41 -11 87 -45 107
-31 19 -54 20 -707 19 -371 0 -682 -3 -690 -6z"/>
<path d="M1425 2255 c-5 -2 -23 -6 -38 -9 -16 -4 -36 -20 -47 -39 -19 -30 -20
-52 -20 -427 0 -374 1 -397 20 -427 13 -21 31 -35 57 -42 51 -15 1304 -15
1355 -1 20 6 46 22 58 37 19 25 20 38 20 433 0 395 -1 408 -20 433 -12 15 -38
31 -58 37 -33 9 -1300 14 -1327 5z m1205 -475 l0 -270 -555 0 -555 0 0 270 0
270 555 0 555 0 0 -270z"/>
</g>
</svg>
