<?xml version="1.0" standalone="no"?>
<!DOCTYPE svg PUBLIC "-//W3C//DTD SVG 20010904//EN"
 "http://www.w3.org/TR/2001/REC-SVG-20010904/DTD/svg10.dtd">
<svg version="1.0" xmlns="http://www.w3.org/2000/svg"
 width="640.000000pt" height="640.000000pt" viewBox="0 0 640.000000 640.000000"
 preserveAspectRatio="xMidYMid meet">

<g transform="translate(0.000000,640.000000) scale(0.100000,-0.100000)"
fill="#000000" stroke="none">
<path d="M1383 5459 c-198 -33 -365 -186 -430 -394 -17 -57 -18 -141 -18
-1865 0 -1725 1 -1808 18 -1865 25 -80 51 -130 100 -190 78 -96 166 -156 282
-192 57 -17 140 -18 1860 -18 1713 0 1803 1 1864 18 83 24 134 50 196 100 96
78 156 166 192 282 17 57 18 140 18 1865 0 1724 -1 1808 -18 1865 -27 88 -71
163 -130 226 -98 103 -187 149 -324 169 -85 12 -3536 11 -3610 -1z m3680 -227
c66 -33 134 -102 165 -170 l27 -57 3 -297 3 -298 -2061 0 -2060 0 0 288 c0
276 1 289 23 343 13 30 36 72 51 92 32 41 114 98 166 114 24 8 575 11 1835 10
l1800 -2 48 -23z m195 -2434 l-3 -1403 -26 -55 c-33 -70 -95 -132 -167 -167
l-57 -28 -1805 0 -1805 0 -57 28 c-72 35 -134 97 -167 167 l-26 55 -3 1403 -2
1402 2060 0 2060 0 -2 -1402z"/>
<path d="M1534 4914 c-77 -38 -75 -142 3 -179 63 -30 130 10 140 83 4 33 1 44
-23 70 -36 38 -78 47 -120 26z"/>
<path d="M2660 4912 c-109 -55 -40 -220 77 -181 36 11 73 58 73 92 0 34 -31
79 -65 93 -43 18 -43 18 -85 -4z"/>
</g>
</svg>
