<?xml version="1.0" standalone="no"?>
<!DOCTYPE svg PUBLIC "-//W3C//DTD SVG 20010904//EN"
 "http://www.w3.org/TR/2001/REC-SVG-20010904/DTD/svg10.dtd">
<svg version="1.0" xmlns="http://www.w3.org/2000/svg"
 width="640.000000pt" height="640.000000pt" viewBox="0 0 640.000000 640.000000"
 preserveAspectRatio="xMidYMid meet">

<g transform="translate(0.000000,640.000000) scale(0.100000,-0.100000)"
fill="#000000" stroke="none">
<path d="M2990 5604 c-399 -72 -738 -336 -890 -694 -59 -140 -81 -241 -87
-400 -8 -228 26 -383 130 -582 106 -205 297 -392 509 -499 81 -41 248 -95 333
-109 39 -6 80 -13 93 -16 l22 -4 0 -231 0 -231 -61 56 c-118 109 -258 159
-449 159 -126 0 -200 -11 -333 -50 -115 -34 -147 -62 -147 -128 0 -108 78
-325 162 -451 79 -119 173 -192 307 -242 106 -39 352 -42 499 -5 l22 5 0 -166
0 -166 -539 0 c-296 0 -552 -3 -570 -6 -79 -16 -107 -104 -53 -165 27 -30 34
-32 109 -37 l80 -4 87 -382 c48 -209 92 -394 98 -409 6 -15 22 -37 36 -47 24
-20 45 -20 852 -20 807 0 828 0 852 20 14 10 30 32 36 47 6 15 50 200 98 409
l87 382 80 4 c75 5 82 7 109 37 54 61 26 149 -53 165 -18 3 -274 6 -570 6
l-539 0 0 165 c0 91 1 165 3 165 1 0 38 -7 82 -15 107 -19 304 -19 380 0 206
52 357 197 455 435 40 96 70 216 70 275 0 66 -32 94 -147 128 -130 38 -205 50
-333 50 -191 0 -327 -47 -446 -156 l-64 -59 0 231 0 231 23 4 c12 3 53 10 90
16 349 56 683 296 844 608 102 195 138 356 130 577 -10 300 -121 552 -336 765
-184 182 -392 290 -647 334 -108 19 -310 19 -414 0z m315 -194 c428 -49 767
-341 860 -743 107 -464 -168 -947 -630 -1105 -157 -53 -377 -68 -533 -36 -614
127 -953 746 -713 1304 66 154 198 315 335 409 123 85 305 153 456 170 106 12
124 12 225 1z m-502 -2603 c89 -44 147 -103 199 -204 39 -74 84 -200 75 -209
-14 -15 -123 -36 -212 -41 -228 -13 -363 61 -463 254 -48 94 -80 189 -66 203
21 20 161 39 276 37 111 -3 119 -5 191 -40z m1170 27 c52 -10 91 -22 94 -30 7
-20 -24 -108 -70 -197 -99 -193 -234 -267 -462 -254 -89 5 -198 26 -212 41 -9
9 36 135 75 209 19 38 54 90 78 116 45 51 136 105 200 120 63 15 202 12 297
-5z m87 -1201 c0 -5 -33 -152 -74 -328 l-73 -320 -713 0 -713 0 -73 320 c-41
176 -74 323 -74 328 0 4 387 7 860 7 473 0 860 -3 860 -7z"/>
</g>
</svg>
