<?xml version="1.0" standalone="no"?>
<!DOCTYPE svg PUBLIC "-//W3C//DTD SVG 20010904//EN"
 "http://www.w3.org/TR/2001/REC-SVG-20010904/DTD/svg10.dtd">
<svg version="1.0" xmlns="http://www.w3.org/2000/svg"
 width="640.000000pt" height="640.000000pt" viewBox="0 0 640.000000 640.000000"
 preserveAspectRatio="xMidYMid meet">

<g transform="translate(0.000000,640.000000) scale(0.100000,-0.100000)"
fill="#000000" stroke="none">
<path d="M3595 5111 c-11 -5 -29 -19 -40 -31 -19 -21 -20 -38 -23 -301 l-3
-279 -694 0 -693 0 -4 138 c-3 130 -5 140 -35 205 -107 225 -369 312 -593 197
-67 -34 -146 -120 -183 -197 -30 -65 -32 -75 -35 -205 l-4 -138 -154 0 c-169
0 -201 -8 -222 -55 -9 -20 -12 -393 -12 -1564 l0 -1537 21 -23 c11 -12 33 -28
47 -34 21 -9 548 -12 2222 -12 2020 0 2198 1 2237 17 23 9 46 25 52 36 8 15
11 474 11 1566 l0 1544 -31 31 -31 31 -139 0 -139 0 0 281 0 281 -29 29 -29
29 -739 -1 c-406 0 -747 -4 -758 -8z m1355 -406 l0 -205 -610 0 -610 0 0 205
0 205 610 0 610 0 0 -205z m-3169 169 c65 -19 129 -80 147 -141 6 -22 12 -84
12 -137 l0 -96 -225 0 -225 0 0 103 c0 86 4 110 24 152 30 64 62 93 128 116
65 23 72 23 139 3z m3509 -994 l0 -410 -341 0 c-187 0 -339 -3 -337 -7 32 -65
78 -166 83 -182 6 -21 12 -21 301 -21 l294 0 0 -885 0 -885 -2095 0 -2095 0 0
885 0 885 731 0 730 0 22 53 c12 28 34 76 49 105 l27 52 -780 0 -779 0 0 410
0 410 2095 0 2095 0 0 -410z"/>
<path d="M1524 3942 c-52 -42 -58 -105 -15 -151 42 -44 100 -46 143 -3 42 42
41 100 -1 143 -35 34 -93 39 -127 11z"/>
<path d="M3510 3455 c-204 -46 -383 -215 -435 -410 -21 -81 -21 -239 0 -313
59 -203 234 -364 443 -407 91 -19 138 -19 227 0 221 46 405 227 450 442 40
186 -10 369 -136 507 -73 79 -142 125 -238 160 -93 33 -218 42 -311 21z m278
-230 c72 -32 142 -102 182 -181 22 -43 25 -62 25 -149 0 -89 -3 -107 -29 -162
-33 -73 -107 -147 -181 -184 -43 -21 -64 -24 -155 -24 -101 0 -108 1 -168 34
-126 69 -202 193 -202 334 0 109 68 238 159 301 106 74 248 86 369 31z"/>
</g>
</svg>
