<?xml version="1.0" standalone="no"?>
<!DOCTYPE svg PUBLIC "-//W3C//DTD SVG 20010904//EN"
 "http://www.w3.org/TR/2001/REC-SVG-20010904/DTD/svg10.dtd">
<svg version="1.0" xmlns="http://www.w3.org/2000/svg"
 width="640.000000pt" height="640.000000pt" viewBox="0 0 640.000000 640.000000"
 preserveAspectRatio="xMidYMid meet">

<g transform="translate(0.000000,640.000000) scale(0.100000,-0.100000)"
fill="#000000" stroke="none">
<path d="M983 5685 c-129 -40 -237 -153 -272 -285 -9 -34 -11 -515 -9 -2015
l3 -1970 33 -68 c65 -132 176 -210 323 -228 54 -6 573 -9 1459 -7 1116 2 1382
6 1410 16 19 8 47 18 62 24 l27 10 -69 79 -68 79 -1424 3 -1425 2 -40 28 c-22
15 -50 46 -64 70 l-24 42 -3 1924 c-1 1322 1 1935 8 1962 14 50 64 107 115
130 38 18 95 19 1053 19 l1012 0 0 -332 c0 -371 3 -388 65 -483 45 -67 118
-127 193 -157 54 -21 72 -22 395 -26 l337 -4 0 -645 0 -645 33 6 c17 4 65 12
105 18 l72 10 0 702 0 701 -528 527 -527 528 -1105 -1 c-885 0 -1113 -3 -1147
-14z m2702 -973 c-227 -2 -248 -1 -284 17 -48 25 -87 71 -101 119 -5 21 -10
141 -10 272 l0 235 320 -320 320 -320 -245 -3z"/>
<path d="M2383 4695 c-194 -43 -353 -215 -384 -414 -23 -139 22 -298 111 -395
l42 -45 -55 -31 c-132 -74 -265 -216 -328 -349 -52 -109 -70 -199 -72 -354
l-2 -138 33 -30 32 -29 734 0 734 0 31 31 31 31 0 118 c0 196 -38 335 -127
465 -70 103 -188 212 -277 257 -23 11 -43 22 -45 24 -2 1 15 24 37 51 85 102
116 202 110 349 -4 91 -8 110 -40 175 -61 128 -176 232 -299 270 -82 26 -191
31 -266 14z m243 -228 c216 -110 214 -417 -4 -524 -77 -38 -184 -40 -252 -5
-57 30 -116 86 -143 137 -31 58 -31 202 0 261 32 60 98 121 156 144 72 28 173
23 243 -13z m79 -795 c206 -76 357 -273 380 -494 l7 -68 -596 0 -596 0 0 43
c0 23 7 71 15 106 46 193 187 347 380 414 75 26 89 27 215 24 108 -2 147 -7
195 -25z"/>
<path d="M1827 2485 c-33 -34 -40 -67 -23 -109 18 -43 66 -70 111 -62 83 16
109 135 40 180 -38 25 -98 21 -128 -9z"/>
<path d="M2437 2499 c-9 -5 -24 -24 -33 -41 -46 -89 57 -183 143 -129 84 53
47 181 -51 181 -22 0 -49 -5 -59 -11z"/>
<path d="M3019 2481 c-31 -32 -38 -71 -18 -115 11 -24 62 -56 89 -56 7 0 27 7
45 15 94 45 60 185 -45 185 -33 0 -48 -6 -71 -29z"/>
<path d="M1852 1905 c-82 -36 -71 -160 17 -185 24 -8 237 -10 649 -8 l614 3
29 33 c55 62 28 150 -52 166 -18 3 -300 6 -628 6 -494 -1 -602 -3 -629 -15z"/>
</g>
</svg>
